<?xml version="1.0" encoding="utf-8"?>
<!-- Generator: Adobe Illustrator 26.0.3, SVG Export Plug-In . SVG Version: 6.00 Build 0)  -->
<svg version="1.1" id="Layer_1" xmlns="http://www.w3.org/2000/svg" xmlns:xlink="http://www.w3.org/1999/xlink" x="0px" y="0px"
	 viewBox="0 0 120 30" style="enable-background:new 0 0 120 30;" xml:space="preserve">
<style type="text/css">
	.st0{fill:#213B74;}
	.st1{fill:#213C75;}
	.st2{fill:#233971;}
	.st3{fill:url(#SVGID_1_);}
	.st4{fill:url(#SVGID_00000103225164707841246310000010601678587788843682_);}
</style>
<g>
	<path class="st0" d="M61.5,18.2c0.2,1-0.3,1-0.9,0.9c-1.5,0-1.5,0-1.5-1.5c0-3.4,0-6.8,0-10.2c0-0.6,0.2-0.8,0.8-0.8
		c1.8,0,1.8,0,1.8,1.9c0,0.8,0,1.6,0,2.5c1.2-1,2.5-1.2,3.8-0.9c1,0.2,1.9,0.8,2.5,1.6c1.3,1.7,1.2,4.6-0.2,6.2
		C66.3,19.5,63.9,19.7,61.5,18.2z M61.7,14.6c0,1.5,0.9,2.5,2.3,2.5s2.3-1,2.3-2.5s-0.9-2.5-2.3-2.5C62.6,12,61.7,13.1,61.7,14.6z"
		/>
	<path class="st1" d="M110.9,18.2c-2.2,1.5-4.7,1.3-6.2-0.3c-1.5-1.7-1.6-4.5-0.2-6.3s3.8-2.1,6.3-0.7c0-1.2,0-2.4,0-3.6
		c0-0.5,0.1-0.7,0.7-0.7c1.9,0,1.9,0,1.9,1.9c0,3.3,0,6.6,0,9.9c0,0.6-0.2,0.8-0.8,0.7c-0.2,0-0.3,0-0.5,0
		C111.6,19.1,110.7,19.6,110.9,18.2z M110.8,14.6c0-1.5-0.9-2.6-2.3-2.6s-2.4,1-2.4,2.5s1,2.5,2.3,2.6
		C109.9,17.1,110.8,16.1,110.8,14.6z"/>
	<path class="st1" d="M72.9,11c1.3-1.1,2.6-1.3,4-1c2.5,0.6,3.9,3.2,3.2,5.9c-0.7,2.4-3.2,3.8-5.6,3.1c-0.4-0.1-0.7-0.3-1-0.5
		c-0.4-0.3-0.5-0.2-0.5,0.2c0,1,0,1.9,0,2.9c0,0.6-0.2,0.8-0.7,0.7c-0.6-0.1-1.4,0.2-1.8-0.1c-0.4-0.4-0.1-1.1-0.1-1.7
		c0-3.3,0-6.6,0-9.8c0-0.5,0.1-0.8,0.7-0.7c0.3,0,0.6,0,0.9,0C72.5,10,73.1,10,72.9,11z M77.6,14.6c0-1.5-0.9-2.6-2.3-2.6
		s-2.4,1-2.4,2.5s0.9,2.6,2.3,2.6S77.6,16.1,77.6,14.6z"/>
	<path class="st1" d="M42.7,19.3c-2.5-0.1-4.5-1-5.7-3.3c-1.1-2.2-0.9-4.4,0.5-6.4c2.1-2.9,7-3.3,9.6-0.9c0.4,0.3,0.5,0.6,0,0.9
		C47,9.6,47,9.7,47,9.7c-0.3,0.3-0.6,0.7-1,0.9c-0.5,0.2-0.7-0.4-1.1-0.6c-1.6-1-3.9-0.6-5,0.8c-1.2,1.6-1,3.9,0.4,5.2
		s3.7,1.3,5.1,0c0.4-0.4,0.6-0.4,1,0c0.2,0.3,0.5,0.5,0.8,0.7c0.5,0.3,0.3,0.6,0,0.9C45.9,18.9,44.4,19.3,42.7,19.3z"/>
	<path class="st1" d="M98,14.6c0,2.7-2.1,4.7-4.9,4.7c-2.9,0-5-2-5-4.7s2.1-4.7,5-4.7C95.9,9.9,98,11.9,98,14.6z M90.7,14.6
		c0,1.5,0.9,2.5,2.3,2.5s2.3-1.1,2.3-2.5c0-1.5-1-2.5-2.3-2.5C91.6,12.1,90.7,13.1,90.7,14.6z"/>
	<path class="st1" d="M54.4,18.3c-1.1,1.1-2.4,1.2-3.8,0.9c-1.4-0.3-2.2-1.3-2.2-2.6s0.7-2.2,2.2-2.5c1.1-0.3,2.1-0.2,3.2-0.2
		c0.6,0,0.7-0.2,0.5-0.8c-0.3-0.6-0.8-0.9-1.4-1c-1-0.1-1.9,0-2.7,0.5c-0.4,0.2-0.6,0.2-0.7-0.2c0-0.1-0.1-0.2-0.2-0.4
		c-0.6-1.1-0.6-1.1,0.6-1.5c1.4-0.5,2.8-0.7,4.3-0.4c1.8,0.4,2.9,1.6,2.9,3.5c0.1,1.7,0,3.4,0,5.1c0,0.3-0.1,0.5-0.5,0.5
		c-0.3,0-0.6,0-0.9,0C54.7,19.1,54.7,19.1,54.4,18.3z M52.4,17.5c1.2,0,2-0.8,2-1.8c0-0.2-0.1-0.4-0.4-0.5c-0.8,0-1.6-0.1-2.3,0.1
		c-0.4,0.1-0.7,0.4-0.8,0.9c0,0.5,0.2,0.8,0.6,1C51.8,17.5,52.1,17.5,52.4,17.5z"/>
	<path class="st1" d="M82,14.6c0-0.6,0-1.2,0-1.8c0-0.4-0.2-0.6-0.6-0.5c-1,0.1-0.9-0.1-0.9-0.9c0-0.2,0-0.4,0-0.5
		c0-0.4,0.2-0.6,0.6-0.5c1,0,0.9,0,0.9-0.9c0-1.3,0-1.3,1.3-1.3C84.6,8,84.6,8,84.6,9.3c0,1,0,1,1,1c1.4,0,1.2-0.2,1.2,1.2
		c0,0.6-0.2,0.8-0.8,0.8c-1.5,0-1.5,0-1.5,1.5c0,0.7,0,1.3,0,2c0,1.2,0.7,1.7,1.8,1.3c0.4-0.1,0.5-0.1,0.6,0.3
		c0,0.2,0.1,0.3,0.2,0.4c0.4,1,0.3,1.1-0.7,1.4c-0.6,0.1-1.1,0.2-1.7,0.1C82.9,19,82,18,82,16.2C82,15.6,82,15.1,82,14.6L82,14.6z"
		/>
	<path class="st0" d="M102.1,14.6c0,1.3,0,2.6,0,3.9c0,0.5-0.1,0.6-0.6,0.6c-0.6-0.1-1.5,0.3-1.9-0.1s-0.1-1.2-0.1-1.9
		c0-2.2,0-4.3,0-6.5c0-0.5,0.1-0.7,0.6-0.6c0.5,0,1,0,1.5,0c0.4,0,0.5,0.1,0.5,0.5C102.1,11.9,102.1,13.3,102.1,14.6z"/>
	<path class="st1" d="M100.8,8.7c-1,0-1.6-0.6-1.6-1.4s0.6-1.4,1.6-1.4s1.6,0.5,1.6,1.4C102.4,8.1,101.7,8.7,100.8,8.7z"/>
	<path class="st2" d="M107.4,22.5c0,0.4,0,0.8,0,1.2c0,0.2,0,0.3-0.2,0.3c-0.3,0-0.3-0.2-0.3-0.4c0-0.6,0-1.3,0-1.9
		c0-0.2,0-0.3,0.2-0.4c0.2,0,0.3,0,0.5,0.2c0.3,0.4,0.6,0.9,0.9,1.4c0.3-0.4,0.1-0.8,0.2-1.1c0-0.2,0-0.4,0.3-0.4s0.2,0.3,0.3,0.4
		c0,0.6,0,1.2,0,1.7c0,0.2,0.1,0.4-0.2,0.5c-0.2,0-0.4-0.1-0.5-0.3c-0.3-0.5-0.6-0.9-0.9-1.4C107.5,22.5,107.4,22.5,107.4,22.5z"/>
	<path class="st2" d="M82.3,21.4c0.8,0,1.4,0.6,1.4,1.3c0,0.8-0.6,1.4-1.3,1.4c-0.8,0-1.4-0.6-1.4-1.4C80.9,22,81.5,21.4,82.3,21.4z
		 M83.1,22.8c0-0.5-0.4-1-0.8-1c-0.5,0-0.8,0.4-0.8,0.9s0.4,1,0.8,0.9C82.8,23.6,83,23.3,83.1,22.8z"/>
	<path class="st2" d="M101.7,22.7c0-0.8,0.6-1.3,1.4-1.3s1.3,0.6,1.3,1.4s-0.7,1.4-1.5,1.3C102.2,24.1,101.7,23.5,101.7,22.7z
		 M103.9,22.6c0-0.4-0.3-0.7-0.8-0.8c-0.5,0-0.8,0.3-0.8,0.9c0,0.5,0.2,0.8,0.8,0.9C103.5,23.7,103.9,23.3,103.9,22.6z"/>
	<path class="st2" d="M77.4,24.1c0,0-0.2,0-0.4-0.1c-0.2-0.1-0.5-0.3-0.3-0.6c0.2-0.2,0.4,0,0.6,0.1c0.2,0.2,0.5,0.2,0.6,0
		c0.2-0.3-0.1-0.4-0.3-0.5c-0.1,0-0.2-0.1-0.3-0.1c-0.4-0.1-0.7-0.3-0.7-0.8c0-0.3,0.2-0.6,0.5-0.7c0.4-0.1,0.8-0.1,1.1,0.1
		c0.1,0.1,0.3,0.2,0.2,0.4c-0.1,0.2-0.3,0.1-0.5,0.1c-0.1,0-0.1-0.1-0.2-0.1c-0.2-0.1-0.4-0.2-0.5,0.1c-0.2,0.3,0.1,0.4,0.3,0.5
		c0.1,0.1,0.3,0.1,0.4,0.1c0.4,0.1,0.7,0.4,0.6,0.8C78.4,23.9,78,24.1,77.4,24.1z"/>
	<path class="st2" d="M112.6,24.1c-0.2,0-0.4,0-0.6-0.2c-0.2-0.1-0.4-0.3-0.3-0.5s0.4-0.1,0.6,0.1s0.3,0.2,0.5,0.1
		c0.1-0.1,0.2-0.2,0.2-0.3c0-0.3-0.2-0.3-0.4-0.4c-0.1,0-0.1,0-0.2-0.1c-0.4-0.1-0.7-0.3-0.7-0.8c0-0.3,0.2-0.6,0.5-0.7
		c0.4-0.1,0.8-0.2,1.1,0.1c0.1,0.1,0.3,0.3,0.2,0.4c-0.1,0.1-0.3,0.1-0.4,0c-0.1,0-0.1-0.1-0.2-0.1c-0.2-0.2-0.4-0.2-0.6,0
		c-0.2,0.3,0.1,0.4,0.3,0.5c0.1,0.1,0.2,0.1,0.4,0.1c0.4,0.1,0.7,0.4,0.6,0.9C113.4,23.9,113,24.1,112.6,24.1z"/>
	<path class="st0" d="M92,22.5c0,0.2,0,0.3,0,0.5c0,0.7-0.4,1.1-1.1,1.1c-0.6,0-1-0.4-1-1.1c0-0.4,0-0.7,0-1.1
		c0-0.2-0.1-0.5,0.3-0.5c0.3,0,0.2,0.3,0.2,0.5c0,0.4,0,0.7,0,1.1s0.1,0.7,0.6,0.7c0.4,0,0.5-0.3,0.5-0.6c0-0.4,0-0.8,0-1.1
		c0-0.2,0-0.4,0.3-0.4S92,21.8,92,22C92,22.1,92,22.3,92,22.5z"/>
	<path class="st2" d="M95.3,21.4c0.2,0,0.3,0,0.5,0s0.5-0.1,0.5,0.2c0,0.3-0.2,0.2-0.4,0.2c-0.3,0.1-0.3,0.4-0.3,0.6
		c0,0.5,0,0.9,0,1.4c0,0.2,0,0.3-0.2,0.3s-0.3-0.1-0.3-0.3c0-0.4,0-0.8,0-1.2c0-0.4,0.1-0.8-0.5-0.8c-0.1,0-0.2-0.1-0.2-0.2
		s0.1-0.2,0.2-0.2C94.8,21.4,95.1,21.4,95.3,21.4L95.3,21.4z"/>
	<path class="st2" d="M86.7,24.1C86.2,24.2,86,24,86,23.4c0-0.5,0-1.1,0-1.6c0-0.2,0-0.4,0.2-0.4c0.3,0,0.3,0.2,0.3,0.4
		c0,0.3,0,0.6,0,0.9c0,0.5-0.2,1,0.7,1c0.1,0,0.2,0.1,0.2,0.2s-0.1,0.2-0.2,0.2S86.9,24.1,86.7,24.1z"/>
	<path class="st1" d="M99.2,22.8c0,0.3,0,0.7,0,1c0,0.2,0,0.3-0.3,0.3c-0.2,0-0.2-0.2-0.2-0.3c0-0.7,0-1.3,0-2c0-0.2,0-0.3,0.2-0.3
		s0.2,0.2,0.2,0.3C99.2,22.1,99.2,22.4,99.2,22.8z"/>
	<g>
		<g>
			<linearGradient id="SVGID_1_" gradientUnits="userSpaceOnUse" x1="6.369" y1="13.5627" x2="32.2763" y2="13.5627">
				<stop  offset="0" style="stop-color:#2D3E98"/>
				<stop  offset="4.454321e-02" style="stop-color:#284DA3"/>
				<stop  offset="0.1684" style="stop-color:#1C70BC"/>
				<stop  offset="0.3001" style="stop-color:#138CD2"/>
				<stop  offset="0.4398" style="stop-color:#0BA3E2"/>
				<stop  offset="0.5913" style="stop-color:#06B3EE"/>
				<stop  offset="0.7633" style="stop-color:#03BCF5"/>
				<stop  offset="1" style="stop-color:#02BFF7"/>
			</linearGradient>
			<path class="st3" d="M12.2,16.6c0-0.1-0.1-0.3-0.1-0.4c-0.6,0-1.2,0-1.8,0c-0.1,0-0.2,0.1-0.3,0.2c-0.3,0.3-0.6,0.5-1,0.4
				c-0.2,0-0.4,0-0.5,0c-0.2,0-0.4-0.1-0.5,0.2c-0.1,0.2-0.5,0.2-0.7,0.1c-0.2-0.1-0.3-0.4-0.2-0.6c0.1-0.2,0.4-0.4,0.6-0.3
				c0.1,0,0.3,0.1,0.4,0.2c0,0,0.1,0.1,0.1,0.1c0.4,0,0.8,0,1.2-0.1c0.1,0,0.3-0.2,0.4-0.3c0.2-0.2,0.4-0.2,0.6-0.2c0.5,0,1,0,1.4,0
				c0,0,0,0,0.1,0c0-0.1,0-0.1,0-0.2c0-0.2-0.1-0.3-0.3-0.3c-0.8,0-1.6,0-2.4,0c-0.1,0-0.2,0-0.3,0c0-0.4,0-0.8,0-1.2
				c-0.5,0-0.9,0-1.4,0c-0.1,0-0.1,0.1-0.2,0.1c-0.1,0.2-0.5,0.3-0.7,0.2c-0.2-0.1-0.3-0.5-0.2-0.7c0.1-0.2,0.3-0.4,0.5-0.3
				c0.2,0,0.3,0.2,0.5,0.3c0,0,0,0.1,0,0.1c0.5,0,1,0,1.5,0c0.3,0,0.4,0.1,0.4,0.4c0,0.3,0,0.6,0,0.9c0.8,0,1.7,0,2.5,0
				c0-0.3,0-0.6,0-1c0-0.1-0.1-0.2-0.2-0.2c-0.3,0-0.6,0-1,0c-0.3,0-0.4-0.1-0.4-0.4c0-0.4,0-0.9,0-1.3c-0.3,0-0.5,0-0.8,0
				c-0.1,0-0.2,0.1-0.2,0.2c-0.3,0.3-0.6,0.3-0.8,0c-0.1-0.1-0.1-0.6,0.1-0.7c0.3-0.2,0.6-0.2,0.8,0.1c0.1,0.1,0.2,0.1,0.3,0.1
				c0.7,0,1.5,0,2.2,0c0.2,0,0.3-0.1,0.3-0.2c0-0.1,0.1-0.3,0.1-0.4c-0.2,0-0.4,0-0.5,0c-1.1,0-2.2,0-3.3-0.1c-0.1,0-0.3,0-0.4,0.2
				c-0.1,0.1-0.4,0.2-0.5,0.2c-0.1,0-0.3-0.2-0.4-0.4c-0.1-0.2,0-0.5,0.2-0.6c0.1-0.1,0.5,0,0.7,0.1c0.1,0.1,0.2,0.1,0.3,0.2
				c0.1,0,0.2,0,0.3,0c1.2,0,2.3,0.1,3.5,0.1c0.2,0,0.3-0.1,0.3-0.3c-0.2,0-0.3,0-0.5,0c-0.6,0.1-1.1-0.1-1.5-0.6
				C10,9.6,9.7,9.5,9.4,9.5c-0.2,0-0.3,0-0.5,0.2c-0.1,0.2-0.6,0.2-0.8,0C7.9,9.5,7.9,9.1,8.1,9c0.2-0.2,0.6-0.3,0.8,0
				C9,9.1,9.1,9.2,9.3,9.1c0.6-0.1,1,0.2,1.4,0.6c0.2,0.2,0.5,0.4,0.8,0.4c0.3,0,0.7,0.1,0.9,0c0.2-0.1,0.3-0.5,0.5-0.7
				c0.6-0.8,1.2-1.5,2.1-2c0.6-0.3,1.1-0.6,1.7-0.9c1-0.4,2-0.5,3-0.5c1.1,0.1,2.1,0.3,3,0.8c0.9,0.4,1.7,1,2.3,1.7
				c0.4,0.4,0.7,0.9,1,1.3c0.1,0.2,0.2,0.3,0.4,0.2c0,0,0.1,0,0.1,0c0.7,0.1,1.2-0.1,1.7-0.7c0.3-0.3,0.7-0.3,1-0.3
				c0.2,0,0.3,0,0.5-0.2c0.2-0.3,0.6-0.2,0.8,0c0.1,0.1,0.1,0.6-0.1,0.7c-0.2,0.2-0.6,0.2-0.8-0.1c-0.1-0.1-0.6-0.2-0.8-0.1
				c-0.2,0.1-0.5,0.3-0.7,0.5c-0.3,0.3-0.6,0.4-1,0.4c-0.3,0-0.5,0-0.8,0c0.1,0.2,0.2,0.3,0.4,0.3c0.4,0,0.8,0.1,1.2,0
				c0.9-0.2,1.7-0.1,2.6-0.1c0.1,0,0.2,0,0.2-0.1c0.2-0.2,0.6-0.3,0.8-0.1c0.2,0.2,0.2,0.6,0,0.8c-0.2,0.2-0.6,0.2-0.8-0.1
				c-0.1-0.1-0.2-0.1-0.3-0.1c-0.6,0-1.2,0-1.8,0c-0.7,0-1.3,0-2,0c0.1,0.3,0.1,0.5,0.2,0.7c0.9,0,1.8,0,2.7,0
				c0.3,0,0.4,0.1,0.4,0.4c0,0.3,0,0.6,0,1c0.5,0,0.9,0,1.3,0c0.1,0,0.1,0,0.2-0.1c0.2-0.2,0.5-0.3,0.8-0.1c0.2,0.2,0.2,0.4,0.1,0.7
				c-0.1,0.1-0.2,0.2-0.4,0.3c-0.2,0.1-0.4,0-0.5-0.2c-0.1-0.2-0.2-0.2-0.3-0.2c-0.4,0-0.9,0-1.3,0c-0.2,0-0.3-0.1-0.3-0.3
				c0-0.4,0-0.7,0-1c-0.9,0-1.7,0-2.6,0c0,0.4,0.1,0.8,0.1,1.2c0.4,0,0.8,0,1.2,0c0.2,0,0.3,0.1,0.3,0.3c0,0.4,0,0.8,0,1.3
				c0.4,0,0.8,0,1.3,0c0.1,0,0.1-0.1,0.2-0.1c0.2-0.2,0.4-0.2,0.6-0.2c0.2,0,0.3,0.2,0.3,0.4c0,0.2,0.1,0.5-0.2,0.6
				c-0.2,0.1-0.5,0.1-0.7-0.1c-0.1-0.1-0.2-0.2-0.4-0.2c-0.8,0-1.6,0-2.5,0c-0.4,0-0.4,0-0.4,0.5c0.5,0,0.9,0,1.4,0
				c0.4,0,0.7,0.1,0.9,0.4c0.1,0.1,0.2,0.1,0.3,0.1c0.3,0,0.6,0,0.9,0.1c0.2,0,0.4,0,0.6-0.2c0.2-0.2,0.6-0.1,0.7,0.1
				c0.2,0.3,0.2,0.6-0.1,0.8c-0.2,0.2-0.6,0.1-0.7-0.1c-0.1-0.1-0.2-0.1-0.3-0.1c-0.3,0-0.5,0-0.8,0c-0.5,0.1-0.8-0.2-1.1-0.5
				c-0.1-0.1-0.2-0.1-0.3-0.1c-0.4,0-0.9,0-1.3,0c-0.3,0-0.5,0.1-0.5,0.4c0.2,0,0.5,0,0.7,0c0.5,0,0.9,0.1,1.2,0.5
				c0.2,0.3,0.5,0.4,0.9,0.4c0.1,0,0.3-0.1,0.4-0.2c0.2-0.2,0.6-0.2,0.8,0.1c0.2,0.2,0.1,0.6-0.1,0.8c-0.2,0.2-0.5,0.1-0.7-0.1
				c-0.1-0.1-0.3-0.2-0.4-0.2c-0.4,0-0.8-0.1-1.1-0.4c-0.4-0.5-1-0.6-1.6-0.4c-0.1,0-0.2,0-0.4,0c-0.4,0.5-0.7,1-1.1,1.5
				c-0.4,0.4-0.8,0.8-1.3,1.1c-0.6,0.5-1.3,0.8-2,1.1c-0.7,0.2-1.3,0.3-2,0.4c-1,0.1-1.9,0-2.9-0.3c-0.9-0.3-1.7-0.7-2.5-1.3
				c-0.7-0.6-1.3-1.2-1.7-2c-0.3-0.5-0.6-0.5-1-0.5c-0.6,0-1,0.2-1.3,0.6c-0.2,0.3-0.5,0.3-0.8,0.3c-0.2,0-0.5,0-0.6,0.3
				c-0.2,0.2-0.3,0.1-0.5,0c-0.3-0.1-0.3-0.3-0.3-0.5c0-0.1,0.1-0.3,0.2-0.4c0.2-0.2,0.5-0.1,0.7,0.1c0.2,0.1,0.7,0.2,0.9,0
				c0.2-0.1,0.3-0.3,0.5-0.4c0.2-0.2,0.5-0.4,0.9-0.4C11.6,16.6,11.9,16.6,12.2,16.6z M19.3,7.9c-1.5-0.1-2.9,0.6-3.9,1.5
				c-0.7,0.6-1.1,1.3-1.4,2.1c-0.2,0.6-0.4,1.3-0.4,2c0,0.8,0.1,1.6,0.5,2.4c0.3,0.6,0.7,1.2,1.2,1.6c0.6,0.6,1.4,1.1,2.3,1.4
				c1.2,0.4,2.4,0.4,3.5,0c1.1-0.3,2-1,2.7-1.9c0.3-0.4,0.3-0.9-0.1-1.2c-0.5-0.4-0.9-0.2-1.2,0.1c-0.5,0.6-1,1.1-1.7,1.4
				c-1.2,0.5-2.4,0.4-3.5-0.2c-0.9-0.4-1.4-1.1-1.8-2c-0.3-0.8-0.4-1.7-0.2-2.5c0.4-1.4,1.2-2.4,2.6-2.8c1.1-0.4,2.2-0.3,3.3,0.3
				c0.6,0.3,1,0.7,1.4,1.2c0.3,0.3,0.9,0.3,1.3,0c0.3-0.3,0.3-0.7,0-1.1C22.6,8.7,21.2,7.8,19.3,7.9z M24.2,14.3
				C24.2,14.3,24.2,14.3,24.2,14.3c0.2-0.1,0.4,0,0.5-0.1c0.4,0,0.7-0.3,0.7-0.8c0-0.4-0.3-0.7-0.7-0.7c-1,0-1.9,0-2.9-0.1
				c-0.6,0-1.2,0-1.8,0.1c-0.3,0-0.5,0.4-0.5,0.8c0,0.3,0.3,0.7,0.6,0.7c0.3,0,0.7,0.1,1,0.1C22.1,14.3,23.2,14.3,24.2,14.3z
				 M11.6,13.4c0-0.4,0.1-0.8,0.1-1.3c-0.4,0-0.8,0-1.2,0c0,0.4,0,0.8,0,1.3C10.9,13.4,11.2,13.4,11.6,13.4z M26.9,15
				c0.4,0,0.8,0,1.3,0c0-0.4,0-0.8,0-1.1c-0.4,0-0.8,0-1.2,0C26.9,14.2,26.9,14.6,26.9,15z M31.6,13.3c0,0,0,0.1,0,0.1
				c0.1,0.1,0.1,0.1,0.3,0.2c0-0.2,0.1-0.3,0.1-0.4C31.8,13.3,31.7,13.3,31.6,13.3z M7,14.1C7,13.8,6.8,13.8,6.6,14
				C6.8,14.1,6.9,14.1,7,14.1z M30.3,15.4c0.1-0.1,0.1-0.1,0.2-0.2c-0.1-0.1-0.1-0.1-0.2-0.2c-0.1,0.1-0.1,0.1-0.2,0.2
				C30.2,15.3,30.3,15.4,30.3,15.4z M8.5,17.7c0,0.1,0,0.1,0,0.2c0.1,0,0.2,0,0.3,0c0,0,0-0.1,0-0.2C8.7,17.6,8.6,17.6,8.5,17.7z"/>
		</g>
		
			<linearGradient id="SVGID_00000114037214178933909160000001955919269051264926_" gradientUnits="userSpaceOnUse" x1="11.6591" y1="13.5627" x2="26.9862" y2="13.5627">
			<stop  offset="0" style="stop-color:#2D3E98"/>
			<stop  offset="4.454321e-02" style="stop-color:#284DA3"/>
			<stop  offset="0.1684" style="stop-color:#1C70BC"/>
			<stop  offset="0.3001" style="stop-color:#138CD2"/>
			<stop  offset="0.4398" style="stop-color:#0BA3E2"/>
			<stop  offset="0.5913" style="stop-color:#06B3EE"/>
			<stop  offset="0.7633" style="stop-color:#03BCF5"/>
			<stop  offset="1" style="stop-color:#02BFF7"/>
		</linearGradient>
		<path style="fill:url(#SVGID_00000114037214178933909160000001955919269051264926_);" d="M23.7,17c-0.7,0.9-1.6,1.6-2.7,1.9
			c-1.2,0.4-2.3,0.4-3.5,0c-0.9-0.3-1.7-0.7-2.3-1.4c-0.5-0.5-0.8-1.1-1.2-1.6c-0.4-0.7-0.5-1.5-0.5-2.4c0-0.7,0.1-1.3,0.4-2
			c0.3-0.8,0.8-1.5,1.4-2.1c1-0.9,2.4-1.6,3.9-1.5c1.9-0.1,3.3,0.8,4.5,2.1c0.3,0.4,0.3,0.8,0,1.1c-0.3,0.3-1,0.3-1.3,0
			C22,10.7,21.5,10.3,21,10c-1.1-0.5-2.1-0.7-3.3-0.3c-1.4,0.5-2.2,1.5-2.6,2.8c-0.2,0.8-0.1,1.7,0.2,2.5c0.4,0.9,1,1.6,1.8,2
			c1.1,0.6,2.3,0.7,3.5,0.2c0.7-0.3,1.2-0.8,1.7-1.4c0.3-0.4,0.7-0.5,1.2-0.1C24,16.1,24,16.5,23.7,17z M24.5,14.3
			c-0.1,0-0.2,0-0.3,0c-0.2,0-1.8,0-4.3,0c-0.3-0.1-0.5-0.4-0.6-0.7c0-0.4,0.4-0.8,0.5-0.8c0.6,0,1.2-0.1,1.8-0.1c1,0,1.9,0,2.9,0.1
			c0.4,0,0.7,0.3,0.7,0.7C25.2,14,24.9,14.3,24.5,14.3z M19.3,5.9c-4.2,0-7.7,3.4-7.7,7.7s3.4,7.7,7.7,7.7s7.7-3.4,7.7-7.7
			S23.6,5.9,19.3,5.9z"/>
	</g>
</g>
</svg>
